# xmcd CD database file
#
# Track frame offsets:
#	150
#	21756
#	47456
#	68607
#	86435
#	113262
#	131642
#	151534
#	181165
#	205483
#	228880
#	256011
#	276075
#	298202
#
# Disc length: 4320 seconds
#
# Revision: 0
# Processed by: cddbd v1.5.2PL0 Copyright (c) Steve Scherf et al.
# Submitted via: CDex 1.51
#
DISCID=ac10de0e
DTITLE=Diverse - Salsa Dancing cd1
DYEAR=2005
DGENRE=Salsa
TTITLE0=Mamborama - Estar en Cuba
TTITLE1=Bakuley - Pelona
TTITLE2=Son Candela - Como les Gusta
TTITLE3=Fiebbre Latina - Abecedario de Amor
TTITLE4=Chipsy los Complices - No te Pongos asi
TTITLE5=Doris Lavin - Mi son caliente
TTITLE6=Mamborama - Ven a Bailar
TTITLE7=Rene Simon y la Iguana - Che Amigo
TTITLE8=Son Candela - Pégate a Home
TTITLE9=Fiebbre Latina - Te parces tanto a el
TTITLE10=Bakuleyé - Que Culpa tengo yo
TTITLE11=Chipsy los Complices - Si Llegare el Amor a Mi
TTITLE12=Son Candela - Vamos a Celebrar
TTITLE13=Jason Tyrello - What the Memories Say
EXTD=YEAR: 2005
EXTT0=
EXTT1=
EXTT2=
EXTT3=
EXTT4=
EXTT5=
EXTT6=
EXTT7=
EXTT8=
EXTT9=
EXTT10=
EXTT11=
EXTT12=
EXTT13=
PLAYORDER=
